<mxfile host="Electron" agent="Mozilla/5.0 (X11; Linux x86_64) AppleWebKit/537.36 (KHTML, like Gecko) draw.io/26.0.4 Chrome/128.0.6613.186 Electron/32.2.5 Safari/537.36" version="26.0.4">
  <diagram name="Page-1" id="C0TTzloq1Vdm2UTvwTLK">
    <mxGraphModel dx="989" dy="575" grid="1" gridSize="10" guides="1" tooltips="1" connect="1" arrows="1" fold="1" page="1" pageScale="1" pageWidth="1100" pageHeight="850" math="0" shadow="0">
      <root>
        <mxCell id="0" />
        <mxCell id="1" parent="0" />
        <mxCell id="lpFblWUsz3aCrupPQczd-22" style="edgeStyle=orthogonalEdgeStyle;rounded=0;orthogonalLoop=1;jettySize=auto;html=1;exitX=0.5;exitY=1;exitDx=0;exitDy=0;entryX=0.5;entryY=0;entryDx=0;entryDy=0;" parent="1" source="Qm9friMbtk5Wdlpzol8I-1" target="Qm9friMbtk5Wdlpzol8I-3" edge="1">
          <mxGeometry relative="1" as="geometry" />
        </mxCell>
        <mxCell id="Qm9friMbtk5Wdlpzol8I-1" value="Gridmap上セルの選択が可能" style="rounded=1;whiteSpace=wrap;html=1;" parent="1" vertex="1">
          <mxGeometry x="140" y="95" width="120" height="60" as="geometry" />
        </mxCell>
        <mxCell id="Qm9friMbtk5Wdlpzol8I-2" value="&lt;div&gt;&lt;b&gt;gridmap_creator&lt;/b&gt;&lt;/div&gt;Reactアプリケーション&lt;div&gt;（rosbridge_serverと連携）&lt;/div&gt;" style="text;html=1;align=center;verticalAlign=middle;whiteSpace=wrap;rounded=0;" parent="1" vertex="1">
          <mxGeometry x="117.5" y="50" width="175" height="40" as="geometry" />
        </mxCell>
        <mxCell id="Qm9friMbtk5Wdlpzol8I-3" value="セル選択後、Applyボタン押下によって選択状態の更新をTrigger" style="rounded=1;whiteSpace=wrap;html=1;" parent="1" vertex="1">
          <mxGeometry x="125.5" y="170" width="155" height="60" as="geometry" />
        </mxCell>
        <mxCell id="_t85q0Rl3mmEDD3trs_B-5" style="edgeStyle=orthogonalEdgeStyle;rounded=0;orthogonalLoop=1;jettySize=auto;html=1;exitX=1;exitY=0.5;exitDx=0;exitDy=0;entryX=0;entryY=0.5;entryDx=0;entryDy=0;" edge="1" parent="1" source="lpFblWUsz3aCrupPQczd-1" target="lpFblWUsz3aCrupPQczd-33">
          <mxGeometry relative="1" as="geometry">
            <Array as="points">
              <mxPoint x="350" y="275" />
              <mxPoint x="350" y="535" />
            </Array>
          </mxGeometry>
        </mxCell>
        <mxCell id="lpFblWUsz3aCrupPQczd-1" value="nav_msgs::msg::OccupancyGrid&lt;div&gt;/selected_gridmap&lt;/div&gt;&lt;div&gt;publish&lt;/div&gt;" style="rounded=1;whiteSpace=wrap;html=1;" parent="1" vertex="1">
          <mxGeometry x="112.5" y="245" width="210" height="60" as="geometry" />
        </mxCell>
        <mxCell id="lpFblWUsz3aCrupPQczd-2" value="&lt;div&gt;(include this in launch file）&lt;/div&gt;map_saver_server.launch.py&lt;div&gt;launch&lt;/div&gt;" style="rounded=1;whiteSpace=wrap;html=1;" parent="1" vertex="1">
          <mxGeometry x="560" y="85" width="170" height="60" as="geometry" />
        </mxCell>
        <mxCell id="lpFblWUsz3aCrupPQczd-3" value="&lt;b&gt;occupancy_maze_simulator&lt;/b&gt;" style="text;html=1;align=center;verticalAlign=middle;whiteSpace=wrap;rounded=0;" parent="1" vertex="1">
          <mxGeometry x="560" y="55" width="160" height="30" as="geometry" />
        </mxCell>
        <mxCell id="lpFblWUsz3aCrupPQczd-4" value="map_server" style="rounded=1;whiteSpace=wrap;html=1;" parent="1" vertex="1">
          <mxGeometry x="370" y="85" width="120" height="60" as="geometry" />
        </mxCell>
        <mxCell id="lpFblWUsz3aCrupPQczd-5" value="&lt;b&gt;nav2_map_server&lt;/b&gt;" style="text;html=1;align=center;verticalAlign=middle;whiteSpace=wrap;rounded=0;" parent="1" vertex="1">
          <mxGeometry x="400" y="55" width="60" height="30" as="geometry" />
        </mxCell>
        <mxCell id="_t85q0Rl3mmEDD3trs_B-19" style="edgeStyle=orthogonalEdgeStyle;rounded=0;orthogonalLoop=1;jettySize=auto;html=1;exitX=1;exitY=0.5;exitDx=0;exitDy=0;entryX=1;entryY=0.5;entryDx=0;entryDy=0;" edge="1" parent="1" source="lpFblWUsz3aCrupPQczd-6" target="_t85q0Rl3mmEDD3trs_B-16">
          <mxGeometry relative="1" as="geometry" />
        </mxCell>
        <mxCell id="lpFblWUsz3aCrupPQczd-6" value="if mode = selected" style="rounded=1;whiteSpace=wrap;html=1;" parent="1" vertex="1">
          <mxGeometry x="585" y="159" width="120" height="60" as="geometry" />
        </mxCell>
        <mxCell id="lpFblWUsz3aCrupPQczd-8" value="&lt;b&gt;map_serverにサービスコール&lt;/b&gt;" style="rounded=1;whiteSpace=wrap;html=1;" parent="1" vertex="1">
          <mxGeometry x="552" y="230" width="186" height="50" as="geometry" />
        </mxCell>
        <mxCell id="lpFblWUsz3aCrupPQczd-16" value="選択状態を示すGridmapの保存場所&lt;div&gt;(~/.ros/save/selected_gridmap.pgm)&lt;/div&gt;" style="rounded=1;whiteSpace=wrap;html=1;" parent="1" vertex="1">
          <mxGeometry x="475" y="425" width="340" height="60" as="geometry" />
        </mxCell>
        <mxCell id="lpFblWUsz3aCrupPQczd-24" style="edgeStyle=orthogonalEdgeStyle;rounded=0;orthogonalLoop=1;jettySize=auto;html=1;exitX=0.5;exitY=1;exitDx=0;exitDy=0;entryX=0.425;entryY=-0.001;entryDx=0;entryDy=0;entryPerimeter=0;" parent="1" source="Qm9friMbtk5Wdlpzol8I-3" target="lpFblWUsz3aCrupPQczd-1" edge="1">
          <mxGeometry relative="1" as="geometry" />
        </mxCell>
        <mxCell id="lpFblWUsz3aCrupPQczd-25" style="edgeStyle=orthogonalEdgeStyle;rounded=0;orthogonalLoop=1;jettySize=auto;html=1;exitX=0.5;exitY=1;exitDx=0;exitDy=0;entryX=0.453;entryY=-0.005;entryDx=0;entryDy=0;entryPerimeter=0;" parent="1" source="lpFblWUsz3aCrupPQczd-6" target="lpFblWUsz3aCrupPQczd-8" edge="1">
          <mxGeometry relative="1" as="geometry" />
        </mxCell>
        <mxCell id="lpFblWUsz3aCrupPQczd-30" value="" style="edgeStyle=orthogonalEdgeStyle;rounded=0;orthogonalLoop=1;jettySize=auto;html=1;" parent="1" source="lpFblWUsz3aCrupPQczd-28" target="lpFblWUsz3aCrupPQczd-29" edge="1">
          <mxGeometry relative="1" as="geometry" />
        </mxCell>
        <mxCell id="lpFblWUsz3aCrupPQczd-28" value="&lt;b&gt;gridmap_creator起動時&lt;/b&gt;&lt;div&gt;&lt;b&gt;or&lt;/b&gt;&lt;/div&gt;&lt;div&gt;&lt;b&gt;Fetchボタン押下&lt;/b&gt;&lt;/div&gt;" style="rounded=1;whiteSpace=wrap;html=1;" parent="1" vertex="1">
          <mxGeometry x="110" y="315" width="190" height="60" as="geometry" />
        </mxCell>
        <mxCell id="lpFblWUsz3aCrupPQczd-32" value="" style="edgeStyle=orthogonalEdgeStyle;rounded=0;orthogonalLoop=1;jettySize=auto;html=1;" parent="1" source="lpFblWUsz3aCrupPQczd-29" target="lpFblWUsz3aCrupPQczd-31" edge="1">
          <mxGeometry relative="1" as="geometry" />
        </mxCell>
        <mxCell id="lpFblWUsz3aCrupPQczd-29" value="&lt;b&gt;/gridmap Subscribe&lt;/b&gt;" style="rounded=1;whiteSpace=wrap;html=1;" parent="1" vertex="1">
          <mxGeometry x="110" y="395" width="190" height="60" as="geometry" />
        </mxCell>
        <mxCell id="lpFblWUsz3aCrupPQczd-31" value="結果をアプリ上で可視化" style="rounded=1;whiteSpace=wrap;html=1;" parent="1" vertex="1">
          <mxGeometry x="130" y="475" width="150" height="60" as="geometry" />
        </mxCell>
        <mxCell id="lpFblWUsz3aCrupPQczd-35" style="edgeStyle=orthogonalEdgeStyle;rounded=0;orthogonalLoop=1;jettySize=auto;html=1;entryX=1;entryY=0.5;entryDx=0;entryDy=0;" parent="1" source="lpFblWUsz3aCrupPQczd-33" target="_t85q0Rl3mmEDD3trs_B-3" edge="1">
          <mxGeometry relative="1" as="geometry">
            <Array as="points">
              <mxPoint x="830" y="530" />
              <mxPoint x="830" y="380" />
            </Array>
          </mxGeometry>
        </mxCell>
        <mxCell id="lpFblWUsz3aCrupPQczd-33" value="/selected_gridmap&lt;div&gt;Subscribe&lt;/div&gt;" style="rounded=1;whiteSpace=wrap;html=1;" parent="1" vertex="1">
          <mxGeometry x="590" y="505" width="120" height="60" as="geometry" />
        </mxCell>
        <mxCell id="lpFblWUsz3aCrupPQczd-34" value="gridmap_creatorとの&lt;div&gt;リアルタイム連携&lt;/div&gt;" style="text;html=1;align=center;verticalAlign=middle;whiteSpace=wrap;rounded=0;" parent="1" vertex="1">
          <mxGeometry x="450" y="500" width="140" height="30" as="geometry" />
        </mxCell>
        <mxCell id="_t85q0Rl3mmEDD3trs_B-4" style="edgeStyle=orthogonalEdgeStyle;rounded=0;orthogonalLoop=1;jettySize=auto;html=1;entryX=0.5;entryY=0;entryDx=0;entryDy=0;endArrow=none;endFill=0;" edge="1" parent="1" source="_t85q0Rl3mmEDD3trs_B-3" target="lpFblWUsz3aCrupPQczd-16">
          <mxGeometry relative="1" as="geometry">
            <Array as="points">
              <mxPoint x="650" y="425" />
            </Array>
          </mxGeometry>
        </mxCell>
        <mxCell id="_t85q0Rl3mmEDD3trs_B-3" value="map_ioのsaveMapToFileで&lt;div&gt;GridMapを保存&lt;/div&gt;" style="rounded=1;whiteSpace=wrap;html=1;" vertex="1" parent="1">
          <mxGeometry x="590" y="350" width="120" height="60" as="geometry" />
        </mxCell>
        <mxCell id="_t85q0Rl3mmEDD3trs_B-6" style="edgeStyle=orthogonalEdgeStyle;rounded=0;orthogonalLoop=1;jettySize=auto;html=1;entryX=0.073;entryY=-0.011;entryDx=0;entryDy=0;entryPerimeter=0;" edge="1" parent="1" source="lpFblWUsz3aCrupPQczd-4" target="lpFblWUsz3aCrupPQczd-16">
          <mxGeometry relative="1" as="geometry">
            <Array as="points">
              <mxPoint x="430" y="250" />
              <mxPoint x="500" y="250" />
            </Array>
          </mxGeometry>
        </mxCell>
        <mxCell id="_t85q0Rl3mmEDD3trs_B-7" value="読み取り" style="edgeLabel;html=1;align=center;verticalAlign=middle;resizable=0;points=[];" vertex="1" connectable="0" parent="_t85q0Rl3mmEDD3trs_B-6">
          <mxGeometry x="-0.7393" relative="1" as="geometry">
            <mxPoint as="offset" />
          </mxGeometry>
        </mxCell>
        <mxCell id="_t85q0Rl3mmEDD3trs_B-10" style="edgeStyle=orthogonalEdgeStyle;rounded=0;orthogonalLoop=1;jettySize=auto;html=1;exitX=1;exitY=0.5;exitDx=0;exitDy=0;entryX=-0.004;entryY=0.585;entryDx=0;entryDy=0;entryPerimeter=0;startArrow=classic;startFill=1;" edge="1" parent="1" source="lpFblWUsz3aCrupPQczd-4" target="lpFblWUsz3aCrupPQczd-8">
          <mxGeometry relative="1" as="geometry" />
        </mxCell>
        <mxCell id="_t85q0Rl3mmEDD3trs_B-11" value="" style="shape=flexArrow;endArrow=classic;html=1;rounded=0;" edge="1" parent="1">
          <mxGeometry width="50" height="50" relative="1" as="geometry">
            <mxPoint x="544" y="230.5" as="sourcePoint" />
            <mxPoint x="544" y="151.5" as="targetPoint" />
          </mxGeometry>
        </mxCell>
        <mxCell id="_t85q0Rl3mmEDD3trs_B-12" value="map_url" style="edgeLabel;html=1;align=center;verticalAlign=middle;resizable=0;points=[];" vertex="1" connectable="0" parent="_t85q0Rl3mmEDD3trs_B-11">
          <mxGeometry x="0.2584" y="-4" relative="1" as="geometry">
            <mxPoint x="-4" y="10" as="offset" />
          </mxGeometry>
        </mxCell>
        <mxCell id="_t85q0Rl3mmEDD3trs_B-13" value="" style="shape=flexArrow;endArrow=classic;html=1;rounded=0;" edge="1" parent="1">
          <mxGeometry width="50" height="50" relative="1" as="geometry">
            <mxPoint x="499.99999999999994" y="155" as="sourcePoint" />
            <mxPoint x="500" y="230" as="targetPoint" />
          </mxGeometry>
        </mxCell>
        <mxCell id="_t85q0Rl3mmEDD3trs_B-14" value="GridMap" style="edgeLabel;html=1;align=center;verticalAlign=middle;resizable=0;points=[];" vertex="1" connectable="0" parent="_t85q0Rl3mmEDD3trs_B-13">
          <mxGeometry x="0.2584" y="-4" relative="1" as="geometry">
            <mxPoint x="2" y="-10" as="offset" />
          </mxGeometry>
        </mxCell>
        <mxCell id="_t85q0Rl3mmEDD3trs_B-22" style="edgeStyle=orthogonalEdgeStyle;rounded=0;orthogonalLoop=1;jettySize=auto;html=1;exitX=0;exitY=0.5;exitDx=0;exitDy=0;entryX=1;entryY=0.5;entryDx=0;entryDy=0;" edge="1" parent="1" source="_t85q0Rl3mmEDD3trs_B-16" target="lpFblWUsz3aCrupPQczd-29">
          <mxGeometry relative="1" as="geometry" />
        </mxCell>
        <mxCell id="_t85q0Rl3mmEDD3trs_B-16" value="/gridmap&lt;div&gt;Publish&lt;/div&gt;" style="rounded=1;whiteSpace=wrap;html=1;" vertex="1" parent="1">
          <mxGeometry x="546" y="292" width="200" height="40" as="geometry" />
        </mxCell>
        <mxCell id="_t85q0Rl3mmEDD3trs_B-20" style="edgeStyle=orthogonalEdgeStyle;rounded=0;orthogonalLoop=1;jettySize=auto;html=1;exitX=1;exitY=0.25;exitDx=0;exitDy=0;entryX=1;entryY=0.75;entryDx=0;entryDy=0;" edge="1" parent="1" source="lpFblWUsz3aCrupPQczd-33" target="_t85q0Rl3mmEDD3trs_B-16">
          <mxGeometry relative="1" as="geometry">
            <Array as="points">
              <mxPoint x="820" y="520" />
              <mxPoint x="820" y="322" />
            </Array>
          </mxGeometry>
        </mxCell>
      </root>
    </mxGraphModel>
  </diagram>
</mxfile>
